<svg width="24" height="24" viewBox="0 0 24 24" fill="none" xmlns="http://www.w3.org/2000/svg">
<path d="M7.49805 10.1572V17.0021H16.6018V10.2273" stroke="#AAAAAA" stroke-width="1.5" stroke-linecap="round" stroke-linejoin="round"/>
<path d="M6.29761 10.9996L12 6.99792L17.7024 10.9996" stroke="#AAAAAA" stroke-width="1.5" stroke-linecap="round" stroke-linejoin="round"/>
<path d="M13.6506 17.0021V14.2009C13.6506 13.6007 13.1504 13.1005 12.5502 13.1005H11.4497C10.8495 13.1005 10.3492 13.6007 10.3492 14.2009V17.0021" stroke="#AAAAAA" stroke-width="1.5" stroke-linecap="round" stroke-linejoin="round"/>
<path fill-rule="evenodd" clip-rule="evenodd" d="M7.49809 2.99625H16.5058C18.9899 2.99625 21.0037 5.01009 21.0037 7.49412V16.5069C21.0037 18.9899 18.9899 21.0037 16.5058 21.0037H7.49409C5.01005 21.0037 2.99622 18.9899 2.99622 16.5059V7.49812C2.99622 5.01209 5.01206 2.99625 7.49809 2.99625Z" stroke="#AAAAAA" stroke-width="1.5" stroke-linecap="round" stroke-linejoin="round"/>
</svg>
