<svg width="24" height="24" viewBox="0 0 24 24" fill="none" xmlns="http://www.w3.org/2000/svg">
<path d="M13.7679 10.2322C14.7442 11.2085 14.7442 12.7914 13.7679 13.7677C12.7916 14.744 11.2087 14.744 10.2324 13.7677C9.25604 12.7914 9.25604 11.2085 10.2324 10.2322C11.2087 9.25586 12.7916 9.25586 13.7679 10.2322" stroke="#1C78C4" stroke-width="1.5" stroke-linecap="round" stroke-linejoin="round"/>
<path fill-rule="evenodd" clip-rule="evenodd" d="M14.849 4.11999L15.432 4.31399C15.966 4.49199 16.327 4.99199 16.327 5.55499V6.39199C16.327 7.10399 16.895 7.68499 17.607 7.69999L18.445 7.71799C18.93 7.72799 19.37 8.00699 19.587 8.44099L19.862 8.99099C20.114 9.49499 20.015 10.103 19.617 10.501L19.025 11.093C18.522 11.596 18.513 12.409 19.005 12.923L19.585 13.529C19.921 13.88 20.035 14.387 19.881 14.848L19.687 15.431C19.509 15.965 19.009 16.326 18.446 16.326H17.609C16.897 16.326 16.316 16.894 16.301 17.606L16.283 18.444C16.273 18.929 15.994 19.369 15.56 19.586L15.01 19.861C14.506 20.113 13.898 20.014 13.5 19.616L12.908 19.024C12.405 18.521 11.592 18.512 11.078 19.004L10.472 19.584C10.121 19.92 9.61403 20.034 9.15303 19.88L8.57003 19.686C8.03603 19.508 7.67503 19.008 7.67503 18.445V17.608C7.67503 16.896 7.10703 16.315 6.39503 16.3L5.55703 16.282C5.07203 16.272 4.63203 15.993 4.41503 15.559L4.14003 15.009C3.88803 14.505 3.98703 13.897 4.38503 13.499L4.97703 12.907C5.48003 12.404 5.48903 11.591 4.99703 11.077L4.41703 10.471C4.08003 10.119 3.96603 9.61099 4.12003 9.15099L4.31403 8.56799C4.49203 8.03399 4.99203 7.67299 5.55503 7.67299H6.39203C7.10403 7.67299 7.68503 7.10499 7.70003 6.39299L7.71803 5.55499C7.73003 5.06999 8.00803 4.62999 8.44203 4.41299L8.99203 4.13799C9.49603 3.88599 10.104 3.98499 10.502 4.38299L11.094 4.97499C11.597 5.47799 12.41 5.48699 12.924 4.99499L13.53 4.41499C13.881 4.07999 14.389 3.96599 14.849 4.11999V4.11999Z" stroke="#1C78C4" stroke-width="1.5" stroke-linecap="round" stroke-linejoin="round"/>
</svg>
