<svg width="24" height="24" viewBox="0 0 24 24" fill="none" xmlns="http://www.w3.org/2000/svg">
<path fill-rule="evenodd" clip-rule="evenodd" d="M12 6H6V18H12C12.5523 18 13 18.4477 13 19C13 19.5523 12.5523 20 12 20H5.77778C4.79594 20 4 19.2041 4 18.2222V5.77778C4 4.79594 4.79594 4 5.77778 4H12C12.5523 4 13 4.44772 13 5C13 5.55228 12.5523 6 12 6ZM15.2929 9.70711C14.9024 9.31658 14.9024 8.68342 15.2929 8.29289C15.6834 7.90237 16.3166 7.90237 16.7071 8.29289L19.7071 11.2929C20.0976 11.6834 20.0976 12.3166 19.7071 12.7071L16.7071 15.7071C16.3166 16.0976 15.6834 16.0976 15.2929 15.7071C14.9024 15.3166 14.9024 14.6834 15.2929 14.2929L16.5858 13H10C9.44772 13 9 12.5523 9 12C9 11.4477 9.44772 11 10 11H16.5858L15.2929 9.70711Z" fill="#1C78C4"/>
</svg>
