<svg width="24" height="24" viewBox="0 0 24 24" fill="none" xmlns="http://www.w3.org/2000/svg">
<path fill-rule="evenodd" clip-rule="evenodd" d="M15.0013 19.4031V10.8625C15.0013 10.4377 14.8326 10.0303 14.5321 9.73006L12.2691 7.46712C11.9689 7.16665 11.5615 6.99792 11.1367 6.99792H5.59737C4.71335 6.99792 3.9967 7.71457 3.9967 8.59859V19.4031C3.9967 20.2871 4.71335 21.0038 5.59737 21.0038H13.4006C14.2846 21.0038 15.0013 20.2871 15.0013 19.4031V19.4031Z" stroke="#E74C3C" stroke-width="1.5" stroke-linecap="round" stroke-linejoin="round"/>
<path d="M15.0013 17.0021H18.4027C19.2867 17.0021 20.0034 16.2854 20.0034 15.4014V4.99708C20.0034 3.89205 19.1076 2.99625 18.0025 2.99625H10.5994C9.71542 2.99625 8.99878 3.71289 8.99878 4.59691V6.99791" stroke="#E74C3C" stroke-width="1.5" stroke-linecap="round" stroke-linejoin="round"/>
<path d="M15.0013 10.9996H11.8C11.358 10.9996 10.9996 10.6413 10.9996 10.1993V6.99792" stroke="#E74C3C" stroke-width="1.5" stroke-linecap="round" stroke-linejoin="round"/>
</svg>
