<svg width="24" height="24" viewBox="0 0 24 24" fill="none" xmlns="http://www.w3.org/2000/svg">
<path fill-rule="evenodd" clip-rule="evenodd" d="M16.3619 12L19.9389 14.018C20.4269 14.293 20.5939 14.915 20.3089 15.398L19.1459 17.367C18.8689 17.836 18.2679 17.997 17.7939 17.729L14.1819 15.691V20C14.1819 20.552 13.7339 21 13.1819 21H10.8199C10.2679 21 9.81995 20.552 9.81995 20V15.691L6.20795 17.729C5.73395 17.997 5.13295 17.836 4.85595 17.367L3.69295 15.398C3.40795 14.916 3.57495 14.294 4.06295 14.018L7.63795 12L4.06095 9.982C3.57295 9.707 3.40595 9.085 3.69095 8.602L4.85395 6.633C5.13095 6.164 5.73195 6.003 6.20595 6.271L9.81795 8.309V4C9.81795 3.448 10.2659 3 10.8179 3H13.1799C13.7319 3 14.1799 3.448 14.1799 4V8.309L17.7919 6.271C18.2659 6.003 18.8669 6.164 19.1439 6.633L20.3069 8.602C20.5919 9.084 20.4249 9.706 19.9369 9.982L16.3619 12Z" stroke="#1C78C4" stroke-width="1.5" stroke-linecap="round" stroke-linejoin="round"/>
</svg>
