<svg width="24" height="24" viewBox="0 0 24 24" fill="none" xmlns="http://www.w3.org/2000/svg">
<path fill-rule="evenodd" clip-rule="evenodd" d="M13 4H11L10.0736 6.31593C9.82228 6.40108 9.57841 6.50244 9.34326 6.61876L7.05025 5.63604L5.63604 7.05025L6.61876 9.34326C6.50244 9.57841 6.40108 9.82228 6.31593 10.0736L4 11V13L6.31593 13.9264C6.40108 14.1777 6.50244 14.4216 6.61876 14.6567L5.63604 16.9497L7.05025 18.364L9.34326 17.3812C9.57841 17.4976 9.82228 17.5989 10.0736 17.6841L11 20H13L13.9264 17.6841C14.1777 17.5989 14.4216 17.4976 14.6567 17.3812L16.9497 18.364L18.364 16.9497L17.3812 14.6567C17.4976 14.4216 17.5989 14.1777 17.6841 13.9264L20 13V11L17.6841 10.0736C17.5989 9.82228 17.4976 9.57841 17.3812 9.34326L18.364 7.05025L16.9497 5.63604L14.6567 6.61876C14.4216 6.50244 14.1777 6.40108 13.9264 6.31593L13 4ZM12 15C13.6569 15 15 13.6569 15 12C15 10.3431 13.6569 9 12 9C10.3431 9 9 10.3431 9 12C9 13.6569 10.3431 15 12 15Z" fill="#1C78C4"/>
</svg>
