<svg xmlns="http://www.w3.org/2000/svg" width="16" height="16"><path fill="#414141" d="M9 0l.926 2.316c.251.085.495.186.73.302l2.294-.982 1.414 1.414-.982 2.294c.116.235.217.479.302.73L16 7v2l-2.316.927a6.058 6.058 0 01-.302.73l.982 2.293-1.414 1.414-2.294-.982a5.977 5.977 0 01-.729.302L9 16H7l-.926-2.316a5.991 5.991 0 01-.73-.302l-2.294.982-1.414-1.414.982-2.294a5.991 5.991 0 01-.302-.73L0 9V7l2.316-.926c.085-.251.186-.495.302-.73L1.636 3.05 3.05 1.636l2.294.982c.235-.116.48-.217.73-.302L7 0h2zM8 5a3 3 0 100 6 3 3 0 000-6z"/></svg>