<svg width="12" height="12" viewBox="0 0 12 12" fill="none" xmlns="http://www.w3.org/2000/svg">
<path d="M1.29289 5.29289C1.11193 5.47386 1 5.72386 1 6C1 6.27614 1.11193 6.52614 1.29289 6.70711L4.29289 9.70711C4.68342 10.0976 5.31658 10.0976 5.70711 9.70711C6.09763 9.31658 6.09763 8.68342 5.70711 8.29289L4.41421 7H10C10.5523 7 11 6.55228 11 6C11 5.44772 10.5523 5 10 5H4.41421L5.70711 3.70711C6.09763 3.31658 6.09763 2.68342 5.70711 2.29289C5.31658 1.90237 4.68342 1.90237 4.29289 2.29289L1.29289 5.29289Z" fill="#808080"/>
</svg>
