<svg width="12" height="12" viewBox="0 0 12 12" fill="none" xmlns="http://www.w3.org/2000/svg">
<path d="M10.7071 5.29289C10.8881 5.47386 11 5.72386 11 6C11 6.27614 10.8881 6.52614 10.7071 6.70711L7.70711 9.70711C7.31658 10.0976 6.68342 10.0976 6.29289 9.70711C5.90237 9.31658 5.90237 8.68342 6.29289 8.29289L7.58579 7H2C1.44772 7 1 6.55228 1 6C1 5.44772 1.44772 5 2 5H7.58579L6.29289 3.70711C5.90237 3.31658 5.90237 2.68342 6.29289 2.29289C6.68342 1.90237 7.31658 1.90237 7.70711 2.29289L10.7071 5.29289Z" fill="#2192EF"/>
</svg>

