<svg width="52" height="52" viewBox="0 0 52 52" fill="none" xmlns="http://www.w3.org/2000/svg">
<rect width="52" height="52" rx="6" fill="#2192EF" fill-opacity="0.1"/>
<path d="M25.9988 20.6668C25.8148 20.6668 25.6655 20.8162 25.6668 21.0002C25.6668 21.1842 25.8162 21.3335 26.0002 21.3335C26.1842 21.3335 26.3335 21.1842 26.3335 21.0002C26.3335 20.8162 26.1842 20.6668 25.9988 20.6668" stroke="#2192EF" stroke-width="2" stroke-linecap="round" stroke-linejoin="round"/>
<path fill-rule="evenodd" clip-rule="evenodd" d="M26 38V38C19.372 38 14 32.628 14 26V26C14 19.372 19.372 14 26 14V14C32.628 14 38 19.372 38 26V26C38 32.628 32.628 38 26 38Z" stroke="#2192EF" stroke-width="2" stroke-linecap="round" stroke-linejoin="round"/>
<path d="M26.0002 26V32.6667" stroke="#2192EF" stroke-width="2" stroke-linecap="round" stroke-linejoin="round"/>
</svg>
