<svg width="10" height="8" viewBox="0 0 10 8" fill="none" xmlns="http://www.w3.org/2000/svg">
<path d="M9.64018 0.231804C10.0645 0.585368 10.1218 1.21593 9.76822 1.64021L4.74116 7.67139L4.70711 7.70713L4.688 7.723L4.70711 7.70713C4.6735 7.74074 4.63809 7.77146 4.6012 7.79928L4.49876 7.86705L4.39114 7.92064L4.27993 7.96024L4.1394 7.99028L4.04217 7.99914L3.95969 7.99922L3.81343 7.98257L3.69394 7.95226L3.6126 7.92222L3.50221 7.8676L3.42665 7.81941L3.35982 7.76825L3.29289 7.70713L0.292893 4.70713C-0.0976311 4.31661 -0.0976311 3.68344 0.292893 3.29292C0.683418 2.90239 1.31658 2.90239 1.70711 3.29292L3.932 5.517L8.23178 0.359841C8.58534 -0.0644362 9.21591 -0.12176 9.64018 0.231804Z" fill="white"/>
</svg>
