<svg width="16" height="16" viewBox="0 0 16 16" fill="none" xmlns="http://www.w3.org/2000/svg">
<rect width="16" height="16" rx="8" fill="#FFEED8"/>
<path d="M12.6402 4.2318C12.2159 3.87824 11.5853 3.93556 11.2318 4.35984L6.9328 9.51861L4.70711 7.29292C4.31658 6.90239 3.68342 6.90239 3.29289 7.29292C2.90237 7.68344 2.90237 8.31661 3.29289 8.70713L6.28404 11.6983C6.29744 11.712 6.31131 11.7254 6.32565 11.7385C6.41134 11.8168 6.50737 11.8776 6.60909 11.9207C6.88853 12.0395 7.20751 12.0236 7.47266 11.8816C7.57017 11.8293 7.66041 11.76 7.73871 11.6741C7.75169 11.6599 7.76419 11.6454 7.7762 11.6306L12.7682 5.64021C13.1218 5.21593 13.0645 4.58537 12.6402 4.2318Z" fill="#FF9000"/>
</svg>
