<svg width="11" height="20" viewBox="0 0 11 20" fill="none" xmlns="http://www.w3.org/2000/svg">
<g id="Group 23">
<g id="facebook-logo">
<path id="Path" d="M10.3279 0.0041L7.75781 0C4.87031 0 3.00441 1.9144 3.00441 4.8775V7.1264H0.420213C0.196913 7.1264 0.0161133 7.3074 0.0161133 7.5307V10.7891C0.0161133 11.0124 0.197113 11.1932 0.420213 11.1932H3.00441V19.4151C3.00441 19.6384 3.18521 19.8192 3.40851 19.8192H6.78001C7.00331 19.8192 7.18421 19.6381 7.18421 19.4151V11.1932H10.2056C10.4289 11.1932 10.6097 11.0124 10.6097 10.7891L10.611 7.5307C10.611 7.4235 10.5683 7.3208 10.4926 7.2449C10.4169 7.1691 10.3138 7.1264 10.2066 7.1264H7.18421V5.22C7.18421 4.3037 7.40251 3.8386 8.59611 3.8386L10.3275 3.8379C10.5505 3.8379 10.7314 3.6569 10.7314 3.4338V0.4082C10.7314 0.1854 10.5508 0.0045 10.3279 0.0041Z" fill="#1B77F2"/>
</g>
</g>
</svg>
