<svg width="24" height="20" viewBox="0 0 24 20" fill="none" xmlns="http://www.w3.org/2000/svg">
<g id="Group 17">
<path id="Fill 1" fill-rule="evenodd" clip-rule="evenodd" d="M24 2.3672C23.1173 2.7687 22.1677 3.0402 21.1717 3.1625C22.1887 2.5372 22.9695 1.5482 23.337 0.3692C22.386 0.9475 21.3315 1.3674 20.2103 1.5943C19.3118 0.613 18.0322 0 16.6162 0C13.8967 0 11.6925 2.2603 11.6925 5.049C11.6925 5.4443 11.736 5.8296 11.82 6.1996C7.7272 5.9888 4.0995 3.9785 1.671 0.9237C1.2472 1.6697 1.0043 2.5372 1.0043 3.4624C1.0043 5.2136 1.8735 6.7595 3.1943 7.6647C2.3873 7.6385 1.6283 7.4117 0.9645 7.0333C0.9638 7.0548 0.9638 7.0756 0.9638 7.0971C0.9638 9.5435 2.661 11.5839 4.914 12.0477C4.5008 12.163 4.0658 12.2246 3.6165 12.2246C3.2992 12.2246 2.991 12.193 2.6902 12.1346C3.3165 14.1404 5.1353 15.6001 7.29 15.6408C5.6047 16.9952 3.4815 17.802 1.1745 17.802C0.777 17.802 0.3855 17.7781 0 17.732C2.1788 19.164 4.767 20 7.548 20C16.605 20 21.5572 12.3061 21.5572 5.6343C21.5572 5.4151 21.5527 5.1975 21.543 4.9806C22.5052 4.2692 23.34 3.3801 24 2.3672Z" fill="#2BA6F2"/>
</g>
</svg>
